<svg id="visual" viewBox="0 0 1920 1080" width="1920" height="1080" xmlns="http://www.w3.org/2000/svg" xmlns:xlink="http://www.w3.org/1999/xlink" version="1.1"><path d="M0 77L175 87L349 163L524 131L698 66L873 185L1047 66L1222 174L1396 185L1571 109L1745 66L1920 66L1920 0L1745 0L1571 0L1396 0L1222 0L1047 0L873 0L698 0L524 0L349 0L175 0L0 0Z" fill="#001529"></path><path d="M0 293L175 239L349 379L524 293L698 249L873 347L1047 249L1222 455L1396 411L1571 249L1745 228L1920 336L1920 64L1745 64L1571 107L1396 183L1222 172L1047 64L873 183L698 64L524 129L349 161L175 85L0 75Z" fill="#001c35"></path><path d="M0 411L175 411L349 541L524 401L698 411L873 541L1047 368L1222 552L1396 595L1571 444L1745 390L1920 465L1920 334L1745 226L1571 247L1396 409L1222 453L1047 247L873 345L698 247L524 291L349 377L175 237L0 291Z" fill="#002242"></path><path d="M0 768L175 897L349 681L524 714L698 584L873 735L1047 703L1222 887L1396 908L1571 887L1745 563L1920 768L1920 463L1745 388L1571 442L1396 593L1222 550L1047 366L873 539L698 409L524 399L349 539L175 409L0 409Z" fill="#00284f"></path><path d="M0 1081L175 1081L349 1081L524 1081L698 1081L873 1081L1047 1081L1222 1081L1396 1081L1571 1081L1745 1081L1920 1081L1920 766L1745 561L1571 885L1396 906L1222 885L1047 701L873 733L698 582L524 712L349 679L175 895L0 766Z" fill="#002f5c"></path></svg>